<svg viewBox="0 0 202 26" fill="none" xmlns="http://www.w3.org/2000/svg">
  <path d="M1.06689 16.46H12.9669L11.3189 18.272H1.06689V16.46Z" fill="#F16522" />
  <path fill-rule="evenodd" clip-rule="evenodd"
    d="M18.7938 24.892L15.5088 16.346L17.8578 13.214L22.5208 24.892H18.7938ZM12.1008 7.478L13.8708 12.078L16.2008 9.068L13.3008 1.797C13.1608 1.44732 12.9193 1.1476 12.6074 0.936478C12.2955 0.725356 11.9275 0.612518 11.5508 0.612518C11.1741 0.612518 10.8061 0.725356 10.4942 0.936478C10.1823 1.1476 9.94077 1.44732 9.8008 1.797L4.2268 15.739H7.8548L11.0378 7.478C11.079 7.37045 11.1522 7.27812 11.2475 7.2134C11.3428 7.14868 11.4556 7.11469 11.5708 7.116C11.6852 7.11628 11.797 7.15094 11.8915 7.21549C11.986 7.28004 12.0589 7.3715 12.1008 7.478ZM6.6008 18.996C5.5008 21.846 4.5768 24.255 4.3348 24.888H0.570801L2.9238 18.996H6.6008Z"
    fill="#EFF4F7" />
  <path
    d="M24.5066 0.165013C24.3541 0.0966616 24.1829 0.0820944 24.0211 0.123695C23.8592 0.165295 23.7162 0.260599 23.6156 0.394014L23.4766 0.580012L23.3526 0.489013C23.1961 0.374924 23.001 0.32692 22.8095 0.355355C22.6179 0.383791 22.4452 0.486387 22.3286 0.641013L18.4076 5.88501C18.379 5.92323 18.3583 5.96675 18.3467 6.01303C18.3351 6.05932 18.3328 6.10745 18.34 6.15462C18.3472 6.2018 18.3636 6.24708 18.3885 6.28784C18.4133 6.32859 18.446 6.364 18.4846 6.39201L18.9966 6.70901L13.5416 13.869C13.4852 13.9443 13.4441 14.0299 13.4206 14.121L12.8476 16.343C12.8389 16.3782 12.8409 16.4152 12.8533 16.4493C12.8657 16.4834 12.8879 16.513 12.9171 16.5344C12.9464 16.5558 12.9813 16.5681 13.0176 16.5696C13.0538 16.5712 13.0896 16.5619 13.1206 16.543L15.1006 15.351C15.1814 15.3024 15.2521 15.2385 15.3086 15.163L25.3816 1.68801C25.4752 1.56345 25.5258 1.41184 25.5258 1.25601C25.5258 1.10019 25.4752 0.948578 25.3816 0.824014L24.5066 0.165013Z"
    fill="#F16522" />
  <path fill-rule="evenodd" clip-rule="evenodd"
    d="M27.2379 1.198L23.8989 6.157V24.857H38.1149V21.519H27.2379V1.198ZM60.5999 10.014C59.3769 3.865 54.0209 1.584 49.5909 1.584C43.2099 1.584 38.2179 6.477 38.2179 13.321C38.2179 20.132 43.1109 25.021 49.5909 25.021C51.868 24.9753 54.0815 24.2616 55.9564 22.9686C57.8313 21.6756 59.285 19.8602 60.1369 17.748V17.781C60.5086 16.4783 60.7195 15.135 60.7649 13.781H48.3009V17.12H56.8629C56.2772 18.5531 55.2657 19.7719 53.965 20.6115C52.6642 21.4512 51.1371 21.8713 49.5899 21.815C45.0609 21.815 41.5559 18.215 41.5559 13.315C41.5057 12.2294 41.6764 11.1449 42.0577 10.1272C42.4389 9.10952 43.0228 8.17982 43.774 7.39444C44.5251 6.60906 45.4279 5.98435 46.4276 5.55816C47.4273 5.13197 48.5032 4.91316 49.5899 4.915C52.5319 4.915 56.1029 6.27 57.0289 10.006L60.5999 10.014ZM81.0859 19.271C82.2631 18.0824 83.0633 16.5728 83.3864 14.9314C83.7095 13.2899 83.541 11.5897 82.9021 10.0436C82.2632 8.4975 81.1823 7.1743 79.7948 6.23977C78.4072 5.30524 76.7748 4.80092 75.1019 4.79C73.9979 4.79424 72.9059 5.01869 71.8897 5.45019C70.8735 5.8817 69.9537 6.51159 69.1839 7.303C68.3978 8.08865 67.7742 9.02151 67.3487 10.0483C66.9232 11.075 66.7042 12.1756 66.7042 13.287C66.7042 14.3984 66.9232 15.499 67.3487 16.5257C67.7742 17.5525 68.3978 18.4853 69.1839 19.271C69.9537 20.0624 70.8735 20.6923 71.8897 21.1238C72.9059 21.5553 73.9979 21.7798 75.1019 21.784C77.3502 21.7696 79.5015 20.8662 81.0859 19.271ZM66.7709 21.651C64.568 19.4244 63.3324 16.4187 63.3324 13.2865C63.3324 10.1543 64.568 7.1486 66.7709 4.922C67.8597 3.81173 69.159 2.92975 70.5927 2.32765C72.0265 1.72556 73.5659 1.41544 75.1209 1.41544C76.676 1.41544 78.2154 1.72556 79.6491 2.32765C81.0829 2.92975 82.3821 3.81173 83.4709 4.922C85.6738 7.1486 86.9094 10.1543 86.9094 13.2865C86.9094 16.4187 85.6738 19.4244 83.4709 21.651C82.3821 22.7613 81.0829 23.6432 79.6491 24.2453C78.2154 24.8474 76.676 25.1576 75.1209 25.1576C73.5659 25.1576 72.0265 24.8474 70.5927 24.2453C69.159 23.6432 67.8597 22.7613 66.7709 21.651ZM105.689 7.568C105.089 3.336 101.389 1.485 97.8209 1.485C96.4977 1.44553 95.1823 1.70097 93.97 2.23283C92.7577 2.76468 91.6789 3.55961 90.8119 4.56C89.8529 5.81558 89.4043 7.38738 89.5559 8.96V8.927C89.9199 13.754 94.1559 14.547 97.7559 14.911C100.07 15.142 102.451 15.44 102.847 17.192C102.909 17.452 102.942 17.7178 102.947 17.985C102.947 20.365 100.236 21.754 97.7559 21.754C95.6069 21.754 92.9949 20.63 92.7639 18.481V18.613L92.7309 18.113L89.3589 18.179L89.3919 18.807C89.8219 22.94 94.1529 25.055 97.7229 25.055C101.889 25.055 106.323 22.476 106.323 18.013C106.315 17.502 106.26 16.9928 106.158 16.492C105.265 12.792 101.331 11.963 98.1579 11.566C95.6779 11.335 93.0669 11.037 92.9009 8.657C92.8096 7.89536 93.0104 7.12741 93.4629 6.508C93.9979 5.93375 94.6493 5.48038 95.3736 5.17823C96.098 4.87609 96.8785 4.73213 97.6629 4.756C99.6799 4.723 101.928 5.616 102.391 7.698L105.689 7.568ZM131.912 1.584C136.342 1.584 141.698 3.865 142.921 10.014H139.35C138.424 6.278 134.85 4.923 131.911 4.923C130.824 4.92116 129.748 5.13997 128.749 5.56616C127.749 5.99235 126.846 6.61707 126.095 7.40244C125.344 8.18782 124.76 9.11752 124.379 10.1352C123.997 11.1529 123.827 12.2374 123.877 13.323C123.877 18.216 127.377 21.823 131.911 21.823C133.458 21.8793 134.985 21.4592 136.286 20.6195C137.587 19.7799 138.598 18.5611 139.184 17.128H130.623V13.783H143.087C143.042 15.137 142.831 16.4803 142.459 17.783V17.75C141.607 19.8622 140.153 21.6776 138.278 22.9706C136.403 24.2636 134.19 24.9773 131.913 25.023C125.433 25.023 120.54 20.13 120.54 13.323C120.539 6.477 125.531 1.584 131.912 1.584ZM149.588 24.858V8.692L160.763 24.858H163.408V1.716H160.102V18.016L148.828 1.716L146.249 1.683V24.858H149.588ZM180.729 14.973H170.249V21.519H180.993V24.858H166.876V1.749H180.963V5.088H170.249V11.598H180.729V14.973ZM188.36 14.709L196.79 24.859H201.121L193.815 16.164C195.506 15.9235 197.05 15.0699 198.154 13.7655C199.257 12.4611 199.842 10.7968 199.799 9.089C199.829 8.09858 199.653 7.11272 199.282 6.19371C198.912 5.27469 198.355 4.44248 197.647 3.74962C196.938 3.05676 196.094 2.51832 195.167 2.16829C194.24 1.81826 193.25 1.66426 192.261 1.716H183.831V24.858H187.137V5.088H192.263C192.806 5.06378 193.347 5.14973 193.856 5.34068C194.364 5.53163 194.829 5.82362 195.221 6.19902C195.614 6.57442 195.926 7.02545 196.14 7.52489C196.353 8.02434 196.463 8.56186 196.463 9.105C196.463 9.64814 196.353 10.1857 196.14 10.6851C195.926 11.1845 195.614 11.6356 195.221 12.011C194.829 12.3864 194.364 12.6784 193.856 12.8693C193.347 13.0603 192.806 13.1462 192.263 13.122H188.363L188.36 14.709ZM119.59 1.716H109.121V5.055H119.59V1.716ZM113.838 6.157L116.011 8.344V21.514H119.59V24.858H109.121V21.514H112.7V6.157H113.838Z"
    fill="#EFF4F7" />
</svg>