<svg viewBox="0 0 16 22" fill="none" xmlns="http://www.w3.org/2000/svg">
  <path
    d="M15.4525 13.7221C15.296 13.5599 15.1092 13.4302 14.9026 13.3403C14.696 13.2503 14.4737 13.2017 14.2484 13.1977C14.0231 13.1937 13.7992 13.2343 13.5895 13.3168C13.3798 13.3994 13.1885 13.5226 13.0264 13.6791L9.86348 16.8422L9.88948 1.99896C9.88974 1.77354 9.8455 1.55054 9.75935 1.34223C9.67321 1.13391 9.54686 0.944494 9.38746 0.785096C9.22807 0.625699 9.03877 0.49917 8.83046 0.413026C8.62214 0.326882 8.3989 0.28288 8.17348 0.283143C7.94814 0.283012 7.72494 0.327312 7.51674 0.413514C7.30854 0.499717 7.11939 0.6262 6.9601 0.785585C6.8008 0.944969 6.67453 1.13398 6.58845 1.34223C6.50237 1.55047 6.45819 1.77363 6.45845 1.99896L6.43147 16.8579L3.25044 13.6791L3.20845 13.6371C2.88117 13.321 2.44173 13.1478 1.98677 13.1557C1.53181 13.1636 1.09856 13.3519 0.782423 13.6791C0.466285 14.0064 0.293162 14.4459 0.301039 14.9008C0.308915 15.3558 0.497199 15.7888 0.824476 16.1049L5.30745 20.5878C6.0702 21.3162 7.08428 21.7226 8.13893 21.7226C9.19358 21.7226 10.2077 21.3162 10.9705 20.5878L15.4525 16.1049C15.7613 15.7852 15.9339 15.3581 15.9339 14.9135C15.9339 14.469 15.7613 14.0419 15.4525 13.7221Z"
    fill="currentColor" />
</svg>