<svg xmlns="http://www.w3.org/2000/svg" viewBox="0 0 85.925 72.788">
  <path id="Path_60" data-name="Path 60"
    d="M806.052,2529.558a10.937,10.937,0,0,1-5.581-3.59,10.024,10.024,0,0,1-2.4-5.954,6.492,6.492,0,0,1,.535-2.654c2.939-7.265,5.933-14.508,8.9-21.763a2.439,2.439,0,0,1,2.106-1.564,8.031,8.031,0,0,1,1.074-.03h60.9c2.085,0,2.726.428,3.518,2.355,2.719,6.615,5.376,13.257,8.189,19.832a8.548,8.548,0,0,1,.035,6.672,10.441,10.441,0,0,1-6.713,6.48c-.2.067-.387.148-.639.245v33.747c0,2.557-.89,3.454-3.428,3.454H809.5c-2.552,0-3.444-.89-3.444-3.436q0-16.344,0-32.688Zm64.193,31.761v-12.111c0-6.179.006-12.359-.016-18.538,0-.325-.153-.864-.367-.941a13.461,13.461,0,0,1-4.762-3.046,10.579,10.579,0,0,1-16.032.057c-4.335,4.632-11.228,5.082-16.124,0a10.632,10.632,0,0,1-7.964,3.645,10.506,10.506,0,0,1-7.875-3.5c-1.557.919-2.974,1.845-4.478,2.6a1.22,1.22,0,0,0-.858,1.292q.038,14.776.017,29.553v.962h7.167v-1.145q0-10.791,0-21.582a2.671,2.671,0,0,1,2.983-2.992c5.284-.011,10.568,0,15.853-.007a2.347,2.347,0,0,1,2.212.922,5.176,5.176,0,0,1,.682,2.414c.051,7.1.029,14.209.032,21.313,0,.372.035.743.054,1.1Zm-32.669-61.549c-.076.917-.153,1.747-.212,2.578q-.6,8.432-1.19,16.863a4.972,4.972,0,0,0,.107,1.419,5.138,5.138,0,0,0,5.656,4,5.046,5.046,0,0,0,4.471-5.44c-.351-4.638-.782-9.271-1.183-13.906-.158-1.831-.324-3.662-.489-5.513Zm-18.891-.348c-2.122,0-4.115.028-6.107-.016a.992.992,0,0,0-1.11.745c-2.483,6.259-4.994,12.506-7.486,18.761a2.07,2.07,0,0,0-.185.941,5.211,5.211,0,0,0,5.022,4.5,5.061,5.061,0,0,0,5.168-4.381c.085-.619.055-1.262.2-1.865.794-3.3,1.643-6.589,2.442-9.89C817.328,2505.328,817.984,2502.428,818.685,2499.422Zm31.809,0c.028.55.041.965.072,1.38.451,6.065.929,12.128,1.35,18.2a5.181,5.181,0,0,0,6.494,4.934c2.446-.551,4.239-2.941,3.715-5.12-1.512-6.281-3.078-12.55-4.645-18.818-.056-.221-.344-.543-.529-.546C854.84,2499.41,852.728,2499.424,850.494,2499.424Zm-18.941,0c-2.239,0-4.351-.014-6.461.024-.185,0-.472.323-.528.542q-2.334,9.174-4.615,18.362a2.805,2.805,0,0,0-.047,1.146,5.141,5.141,0,0,0,10.208-.666c.241-3.6.555-7.193.826-10.79C831.148,2505.22,831.341,2502.4,831.553,2499.424Zm31.833.318c.593,2.45,1.183,4.786,1.72,7.134.988,4.321,2.023,8.633,2.884,12.978a5.255,5.255,0,0,0,4.821,4.489,5.169,5.169,0,0,0,5.348-3.967,1.679,1.679,0,0,0-.034-.941q-3.807-9.59-7.662-19.159c-.085-.211-.326-.509-.5-.511C867.8,2499.73,865.63,2499.742,863.386,2499.742Zm-28.468,61.575v-19.969H824.747v19.969Z"
    transform="translate(-798.067 -2494)" fill="currentColor" />
</svg>