<svg id="Group_149" data-name="Group 149" xmlns="http://www.w3.org/2000/svg" viewBox="0 0 135.775 65.538">
  <path id="Path_55" data-name="Path 55"
    d="M1944,1372.891a97.5,97.5,0,0,0-.126-10.079,89.209,89.209,0,0,1,.045-8.989,1.035,1.035,0,0,0-.332-.881c-1.264-1.24-2.5-2.507-3.762-3.75-.212-.21-.2-.316.005-.517q3.014-2.93,5.893-6c.2-.217.317-.209.526-.01,1.84,1.746,3.7,3.477,5.533,5.228.238.228.349.184.557-.023,2.067-2.056,4.028-4.212,5.956-6.4.279-.316.411-.281.7-.016,2.234,2.06,4.555,4.025,6.755,6.123.363.346.741.681,1.077,1.052.228.253.363.265.616.016q2.391-2.349,4.542-4.913c.663-.79,1.329-1.578,1.981-2.377.149-.182.247-.2.428-.04,3.158,2.8,6.434,5.474,9.312,8.582a.848.848,0,0,1,.268.738c-.187,1.577-.349,3.157-.539,4.734a27.63,27.63,0,0,0,.071,7.005,41.877,41.877,0,0,1,.642,7.9,51.178,51.178,0,0,1-.641,5.182,28.982,28.982,0,0,0-.152,8.33,50.869,50.869,0,0,1,.546,5.319.642.642,0,0,0,.217.47c.725.734,1.436,1.481,2.163,2.213.17.17.2.262,0,.451-2.217,2.1-4.541,4.083-6.793,6.146-.24.22-.308.006-.409-.109-1-1.126-1.908-2.331-2.911-3.452a2.21,2.21,0,0,1-.543-2.031,19.89,19.89,0,0,0-.151-6.286,43.279,43.279,0,0,1-.837-6.541,28.094,28.094,0,0,1,.661-5.848,25.148,25.148,0,0,0-.067-10.086,23.426,23.426,0,0,1-.467-7.479c.06-.484.1-.971.2-1.45a.663.663,0,0,0-.155-.609c-1.546-1.814-3.106-3.617-4.791-5.307-.2-.2-.3-.183-.531-.02a3.044,3.044,0,0,0-1.284,2.54c-.1,1.484-.381,2.957-.564,4.436a25.928,25.928,0,0,0,.221,7.084,34.034,34.034,0,0,1,.539,7.783c-.144,1.794-.435,3.568-.682,5.349a28.614,28.614,0,0,0,.218,8.414,36.084,36.084,0,0,1,.477,4.193.82.82,0,0,0,.293.608c.717.682,1.411,1.388,2.133,2.067.243.227.279.352,0,.6q-3.421,3.011-6.812,6.059c-.211.189-.292.084-.422-.064q-1.834-2.092-3.675-4.176a.488.488,0,0,1-.138-.414,39.143,39.143,0,0,0-.279-9.426,38.916,38.916,0,0,1,.128-10.05,39.906,39.906,0,0,0-.062-10.385,35.345,35.345,0,0,1-.143-8.635.723.723,0,0,0-.206-.637c-1.661-1.788-3.317-3.58-5.059-5.29-.221-.216-.32-.225-.595-.028a3.033,3.033,0,0,0-1.127,2.6,80.3,80.3,0,0,0-.341,8.728c.109,2.143.288,4.283.426,6.425a43.409,43.409,0,0,1-.156,6.976,59.769,59.769,0,0,0,.007,11.732c.112,1.123.146,2.253.2,3.381a.77.77,0,0,0,.256.578c.747.711,1.477,1.442,2.222,2.155.179.172.237.272.016.478q-3.279,3.046-6.535,6.117c-.15.141-.224.134-.359-.01q-2.006-2.132-4.028-4.25a.507.507,0,0,1-.154-.41c.254-4.493-.174-8.974-.217-13.462C1943.764,1378.028,1943.869,1375.814,1944,1372.891Z"
    transform="translate(-1939.674 -1341.176)" fill="#fa18cd" />
  <path id="Path_56" data-name="Path 56"
    d="M2011.6,1363.943c.063,3.291-.174,7.828-.508,12.362-.312,4.225-.623,8.452-.728,12.689a.881.881,0,0,0,.274.7c.7.734,1.418,1.457,2.165,2.147.157.145.169.229.006.387-2.039,1.961-3.962,4.037-5.945,6.054-.2.207-.307.253-.539.018-1.344-1.355-2.693-2.709-4.006-4.1a.645.645,0,0,1-.23-.5c.164-3.929.073-7.862.166-11.793.077-3.25.447-6.48.7-9.717a80.473,80.473,0,0,0,.035-9.948c-.075-1.713-.124-3.427-.178-5.141a.706.706,0,0,0-.211-.557c-2.553-2.394-5-4.894-7.5-7.343-.2-.2-.292-.194-.523-.008a2.772,2.772,0,0,0-1.018,2.433c.042,2.131-.169,4.26-.155,6.395.015,2.22.2,4.428.378,6.637a41.794,41.794,0,0,1-.169,8.973,63.556,63.556,0,0,0-.428,12.932c.059.834.061,1.672.068,2.509a.724.724,0,0,0,.231.546c.727.732,1.436,1.48,2.167,2.21.172.172.155.262-.011.422q-3.2,3.041-6.377,6.1c-.174.168-.267.156-.429-.013-1.3-1.365-2.537-2.782-3.786-4.19a.545.545,0,0,1-.145-.455,44.491,44.491,0,0,0-.207-9.8,34.123,34.123,0,0,1,.312-9,38.254,38.254,0,0,0,.109-11.537,37.372,37.372,0,0,1-.088-9.427,1.143,1.143,0,0,0-.343-1.036c-1.186-1.219-2.34-2.469-3.513-3.7-.152-.16-.236-.252-.03-.458,1.888-1.9,3.618-3.944,5.351-5.982.226-.267.355-.272.614-.039,1.911,1.713,3.83,3.414,5.667,5.206.215.209.325.2.517-.019,1.915-2.14,3.847-4.265,5.753-6.412.272-.306.4-.288.69-.021,3.754,3.456,7.451,6.972,11.167,10.469a.631.631,0,0,1,.254.448C2011.366,1355.8,2011.543,1359.242,2011.6,1363.943Z"
    transform="translate(-1934.551 -1341.172)" fill="#fa18cd" />
  <path id="Path_57" data-name="Path 57"
    d="M2029.5,1406.717c-1.063-4.87-.642-9.75-.09-14.64-.25,0-.33.149-.436.246-2.138,1.959-4.315,3.877-6.384,5.91-.192.189-.3.2-.491,0-3.461-3.6-7-7.124-10.564-10.615a.764.764,0,0,1-.21-.636c.072-4.184.354-8.357.708-12.526a109.407,109.407,0,0,0,.268-13.583c-.058-1.5-.1-3.01-.163-4.513a.775.775,0,0,1,.283-.61c3.269-3.472,6.707-6.781,9.938-10.289,1.246-1.354,2.473-2.727,3.7-4.094.143-.158.234-.272.458-.067,2.792,2.546,5.714,4.945,8.415,7.592.987.965,1.937,1.968,2.868,2.986.183.2.181.3-.025.482-2.2,1.951-4.385,3.924-6.415,6.057-.21.221-.314.156-.485-.025-1.931-2.05-3.857-4.105-5.807-6.137-.994-1.036-2.038-2.024-3.049-3.044-.215-.217-.329-.234-.6-.017a2.821,2.821,0,0,0-1.059,2.522c.079,2.773-.073,5.549.07,8.322.107,2.088.237,4.175.328,6.265a63.354,63.354,0,0,1-.526,9.637,61.77,61.77,0,0,0-.391,6.51.641.641,0,0,0,.214.509q3.913,3.746,7.816,7.5c.175.169.292.173.432-.012a.278.278,0,0,1,.03-.028c1.158-1.089,1.15-1.089,1.031-2.777-.133-1.877-.274-3.754-.363-5.634a38.216,38.216,0,0,1,.52-7.372c.05-.335-.03-.393-.345-.392-2.44.011-4.88.007-7.321.007h-.529c.264-.243.441-.409.621-.571,2.707-2.434,5.384-4.9,7.846-7.584a.659.659,0,0,1,.548-.221c2.482,0,4.964.011,7.446-.006.354,0,.436.12.472.443a28.183,28.183,0,0,1-.373,7.949,33.175,33.175,0,0,0-.627,6.689c.059,1.8.306,3.582.536,5.364a30.009,30.009,0,0,1-.073,8.127c-.178,1.255-.364,2.51-.465,3.774a.561.561,0,0,1-.185.4,87.042,87.042,0,0,0-7.212,7.736C2029.754,1406.485,2029.666,1406.652,2029.5,1406.717Z"
    transform="translate(-1930.797 -1341.179)" fill="#fa18cd" />
  <path id="Path_58" data-name="Path 58"
    d="M2063.052,1364.6a40.356,40.356,0,0,1-.464-6.667c.058-1.857.325-3.691.531-5.533a.578.578,0,0,0-.151-.488,93.794,93.794,0,0,0-11.2-10.651c-.143-.12-.224-.112-.334.026-.227.283-.467.556-.7.834-1.683,2-3.248,4.111-5.114,5.961-2.429,2.407-5.072,4.576-7.63,6.838a1.612,1.612,0,0,0-.571,1.134,26.826,26.826,0,0,0,.393,7.783,27.045,27.045,0,0,1,.057,10.059,30.508,30.508,0,0,0-.718,6.263c0,.07,0,.139,0,.209a62.871,62.871,0,0,0,.724,6.73,1.057,1.057,0,0,0,.4.734,59.721,59.721,0,0,1,7.082,7.214c.885,1.073,1.716,2.195,2.664,3.218.141.153.236.28.464.078,2.621-2.319,5.358-4.5,7.879-6.937,2.2-2.124,4.184-4.446,6.2-6.743a.975.975,0,0,0,.288-.853,34.756,34.756,0,0,1,.2-9.874A34.078,34.078,0,0,0,2063.052,1364.6Zm-8.447,26.025c-.158.149-.236-.074-.318-.157-1.068-1.083-2.16-2.14-3.312-3.132-1.416-1.218-2.846-2.421-4.266-3.634-.275-.235-.536-.487-.814-.719a.583.583,0,0,1-.181-.406,19.242,19.242,0,0,1-.221-3.042,27.632,27.632,0,0,1,.815-5.787,21.82,21.82,0,0,0-.142-9.576,23.727,23.727,0,0,1-.706-5.669,31.406,31.406,0,0,1,.755-5.5,28.33,28.33,0,0,0,.48-3.222c.034-.445.439-.58.7-.83.089-.088.194.1.272.188,1.091,1.156,2.107,2.378,3.114,3.608,1.033,1.262,2.066,2.526,3.167,3.73a.568.568,0,0,1,.207.471,28.8,28.8,0,0,0,.609,8.018,25.867,25.867,0,0,1-.072,9.1,30.047,30.047,0,0,0-.617,6.312,46.383,46.383,0,0,0,.7,5.678c.192,1.212.314,2.431.384,3.657C2055.188,1390.193,2054.866,1390.383,2054.6,1390.629Z"
    transform="translate(-1927.597 -1341.18)" fill="#fa18cd" />
</svg>