<svg xmlns="http://www.w3.org/2000/svg" width="190.608" height="48.322" viewBox="0 0 190.608 48.322">
  <g id="Group_1" data-name="Group 1" transform="translate(-1454 -716)">
    <path id="Path_1" data-name="Path 1" d="M25.043,49.236a24.161,24.161,0,1,1,17.082-7.077A24.161,24.161,0,0,1,25.043,49.236ZM31.47,17.814l.2.754L35.622,32.92h3.223l-5.4-18.615-.131-.5H30.5l-.064.1L27.8,18.575l-2.7,4.791-.064.116-.03-.116-.328-1.216-.912-3.56-.09-.376L22.645,14.3l-.131-.5H19.705l-.064.1-2.633,4.67-2.7,4.791-2.681,4.773-2.69,4.788h3.222l2.706-4.788,2.7-4.773,2.678-4.788.436-.76.2.757.821,3.156,1.021,3.928L23.077,27l-.641,1.14-2.707,4.787h3.223L24.089,30.9l1.976-3.508,2.277-4.031,2.678-4.788.441-.754Z" transform="translate(1453.121 715.086)" fill="#fff"/>
    <path id="Path_2" data-name="Path 2" d="M61.883,38.678,67.051,10.6A.845.845,0,0,1,67.8,9.97h.669a.848.848,0,0,1,.711.459l8.735,21.354h.167l8.692-21.354a.8.8,0,0,1,.727-.45h.669a.845.845,0,0,1,.751.626l5.138,28.072a.711.711,0,0,1-.751.961H90.589a.866.866,0,0,1-.793-.584L86.709,20.376h-.12L79.069,39.6a.711.711,0,0,1-.711.459h-.751A.751.751,0,0,1,76.9,39.6L69.331,20.376h-.167l-3.01,18.678a.815.815,0,0,1-.751.584H62.689a.751.751,0,0,1-.806-.961Zm40.13.377L94.741,24.013a.739.739,0,0,1,.711-1.085h2.757a.912.912,0,0,1,.711.459L104.089,34.5h.043l5.013-11.115a.843.843,0,0,1,.879-.459h2.408a.717.717,0,0,1,.71,1.089L100.356,51.674a.834.834,0,0,1-.711.5H97.136a.748.748,0,0,1-.711-1.128Zm18.8.584a.738.738,0,0,1-.711-1.085l12.829-28.125a.977.977,0,0,1,.711-.459h.416a.977.977,0,0,1,.711.459l12.745,28.124a.735.735,0,0,1-.034.753.738.738,0,0,1-.677.332H144.17a.974.974,0,0,1-.961-.625l-2.59-5.725H126.954c-.836,1.921-1.715,3.8-2.551,5.725a1.048,1.048,0,0,1-.961.626Zm7.774-9.947h10.446l-5.144-11.45h-.21ZM149.2,38.843V11.177a.82.82,0,0,1,.794-.793h2.383a.821.821,0,0,1,.793.793V38.842a.821.821,0,0,1-.793.793H150a.821.821,0,0,1-.793-.781Zm6.743-.21a5.776,5.776,0,0,1,2.967-4.764,6.7,6.7,0,0,1-1.3-4.052A7.159,7.159,0,0,1,164.8,22.5h7.315a.77.77,0,0,1,.793.793v1.046c0,.3-.167.669-.459.711l-2.3.626a5.6,5.6,0,0,1,1.8,4.472,6.828,6.828,0,0,1-7.1,6.813,12.291,12.291,0,0,1-3.648-.669,2.3,2.3,0,0,0-1.715,2.049,1.781,1.781,0,0,0,2.006,1.715h5.694a5.8,5.8,0,0,1,6.561,5.612c0,3.679-3.344,6.938-8.9,6.938-5.892,0-8.275-3.01-8.275-5.725a4.609,4.609,0,0,1,2.466-3.928V42.83a4.313,4.313,0,0,1-3.089-4.183Zm8.944-4.889A3.521,3.521,0,0,0,168.4,29.9a3.52,3.52,0,0,0-3.511-3.846A3.624,3.624,0,0,0,161.21,29.9a3.624,3.624,0,0,0,3.676,3.858Zm-4.43,12.469c0,1.715,1.8,2.967,4.347,2.967s4.764-1.3,4.764-3.3c0-.669-.417-2.383-3.134-2.383-1.216,0-2.466,0-3.679.082-.252.088-2.292.757-2.292,2.639Zm14.14-14.96a8.448,8.448,0,1,1,8.442,8.816,8.643,8.643,0,0,1-8.445-8.813Zm3.718,0a4.746,4.746,0,1,0,9.446,0,4.737,4.737,0,1,0-9.446,0Z" transform="translate(1453.121 709.03)" fill="#fff"/>
  </g>
</svg>
