<svg viewBox="0 0 174 65" fill="none" xmlns="http://www.w3.org/2000/svg">
  <path
    d="M33.256 9.73405C34.643 15.48 34.174 20.534 32.209 21.0221C30.244 21.5101 27.527 17.25 26.14 11.504C24.753 5.75805 25.222 0.704051 27.187 0.216051C29.152 -0.271949 31.869 3.98805 33.256 9.73405Z"
    fill="white" />
  <path
    d="M56.155 14.674C53.084 11.419 46.974 12.301 42.508 16.645C38.042 20.989 36.908 27.145 39.982 30.403C43.056 33.661 49.163 32.776 53.629 28.433C58.095 24.09 59.226 17.929 56.155 14.674Z"
    fill="white" />
  <path
    d="M31.7289 64.514C33.6939 64.025 34.0939 58.685 32.6219 52.587C31.1499 46.489 28.3639 41.942 26.3989 42.43C24.4339 42.918 24.0339 48.259 25.5059 54.357C26.9779 60.455 29.7639 65.003 31.7289 64.514Z"
    fill="white" />
  <path
    d="M11.6978 17.6531C17.3668 19.3251 21.5098 22.2531 20.9498 24.2041C20.3898 26.1551 15.3418 26.3721 9.67282 24.7041C4.00382 23.0361 -0.139181 20.1041 0.420819 18.1531C0.980819 16.2021 6.02782 15.9821 11.6978 17.6531Z"
    fill="white" />
  <path
    d="M48.4929 39.6271C54.5099 41.4011 58.9349 44.4181 58.3749 46.3641C57.8149 48.3101 52.4849 48.4491 46.4679 46.6751C40.4509 44.9011 36.0259 41.8851 36.5859 39.9381C37.1459 37.9911 42.4759 37.8551 48.4929 39.6271Z"
    fill="white" />
  <path
    d="M18.0767 35.546C16.6707 34.089 12.0597 36.21 7.77669 40.283C3.49369 44.356 1.16269 48.841 2.56869 50.298C3.97469 51.755 8.58569 49.634 12.8687 45.561C17.1517 41.488 19.4827 37.006 18.0767 35.546Z"
    fill="white" />
  <path
    d="M81.0076 18.2551V17.0091H75.8706V50.2451H81.0076V41.2901C81.0076 40.3211 81.0076 39.536 80.9146 38.474H81.0076C81.9301 39.9563 83.2281 41.1682 84.77 41.987C86.312 42.8057 88.043 43.2021 89.7876 43.1361C96.0876 43.1361 101.603 38.3811 101.603 29.5651C101.603 20.9331 96.0916 16.2711 89.7876 16.2711C88.0468 16.2277 86.3242 16.634 84.7862 17.4506C83.2482 18.2672 81.9468 19.4667 81.0076 20.9331H80.9146C80.9906 20.0425 81.0217 19.1487 81.0076 18.2551ZM88.4796 38.7551C83.7156 38.7091 80.9606 34.6931 80.9606 29.5231C80.9606 24.6301 83.7156 20.7061 88.4796 20.6601C93.1496 20.6141 96.2316 24.2141 96.2316 29.5691C96.2326 35.0581 93.1496 38.797 88.4796 38.751V38.7551Z"
    fill="white" />
  <path
    d="M128.579 27.3951C128.579 21.0251 123.442 16.2701 116.437 16.2701C108.965 16.2701 103.781 21.302 103.781 29.703C103.781 37.781 108.871 43.136 116.437 43.136C122.648 43.136 127.272 39.536 128.346 34.596H122.746C122.262 35.8605 121.394 36.9414 120.264 37.6866C119.134 38.4318 117.798 38.8038 116.446 38.75C112.617 38.75 109.814 36.0261 109.207 31.5031H128.588L128.579 27.3951ZM116.437 20.6551C120.22 20.6551 122.837 23.24 123.396 26.979H109.246C109.899 23.379 112.561 20.6561 116.437 20.6561V20.6551Z"
    fill="white" />
  <path
    d="M132.356 42.398H137.493V28.0881C137.493 23.1951 140.202 20.6561 144.405 20.6561H147.16V16.2701H144.96C141.177 16.2701 138.842 18.763 137.488 20.932H137.395V17.009H132.351L132.356 42.398Z"
    fill="white" />
  <path
    d="M171.175 37.9661C170.475 37.9661 170.148 37.5501 170.148 36.7191V25.5491C170.148 20.1941 167.533 16.2711 159.827 16.2711C152.355 16.2711 148.946 19.9641 148.572 25.2261H153.709C154.036 22.3641 156.324 20.6561 159.827 20.6561C162.816 20.6561 164.871 21.9481 164.871 23.9801C164.871 25.6421 163.703 26.6571 159.871 26.6571H157.816C151.698 26.6571 147.588 29.1041 147.588 34.6891C147.588 40.5511 151.931 43.2291 157.022 43.2291C160.805 43.2291 164.027 41.5671 165.288 38.0131C165.428 40.5981 167.156 42.3981 170.425 42.3981H173.325V37.9671L171.175 37.9661ZM165.011 30.5801C165.011 36.3041 161.882 38.7971 157.865 38.7971C154.365 38.7971 152.965 36.7661 152.965 34.6891C152.965 32.7041 154.179 31.0891 157.915 31.0891H158.662C162.262 31.0891 164.5 29.8421 164.962 27.6731H165.009L165.011 30.5801Z"
    fill="white" />
</svg>