<svg xmlns="http://www.w3.org/2000/svg" viewBox="0 0 83.035 71.937">
  <path id="Path_61" data-name="Path 61"
    d="M1067.264,2507.074c3.022,0,6.015,0,9.008,0,.344,0,.768-.072,1.013.1a3.586,3.586,0,0,1,.906,1.06c.106.167.037.45.037.68q0,25.932,0,51.863a6.857,6.857,0,0,1-5.265,6.922,8.671,8.671,0,0,1-2.053.228q-34.192.016-68.387.006a6.939,6.939,0,0,1-7.3-7.343q0-28.568,0-57.135c0-1.5.4-1.911,1.882-1.913,3,0,5.994-.015,8.991.011a.991.991,0,0,0,1.053-.653c.612-1.3,1.288-2.573,1.911-3.869a1.639,1.639,0,0,1,1.631-1.03q9.424.019,18.848,0a1.681,1.681,0,0,1,1.681,1.087c.589,1.248,1.266,2.455,1.833,3.713a1.151,1.151,0,0,0,1.251.755q15.346-.03,30.693-.014c1.848,0,2.169.319,2.171,2.145q0,1.555.013,3.111A1.379,1.379,0,0,0,1067.264,2507.074Zm-59.616,58.1h.923q31.166,0,62.331,0a4.2,4.2,0,0,0,4.559-4.582q0-24.892,0-49.785v-.961h-17.841c-8.156,0-16.311.012-24.466-.019a1.132,1.132,0,0,0-1.307.968c-.588,1.954-1.269,3.881-1.916,5.817-.44,1.317-.737,1.533-2.123,1.533h-18.758v1.169q0,19.923.009,39.845C1009.063,2561.211,1009.091,2563.25,1007.648,2565.17Zm-9.665-60.863v.909q0,27.663,0,55.326c0,.288-.006.578.022.864a3.755,3.755,0,0,0,2.744,3.364v-52.909c0-1.652.37-2.02,2.035-2.02,8.445,0,16.89-.019,25.335.025a1.308,1.308,0,0,0,1.537-1.135c.433-1.557.645-1.657,2.257-1.657h32.416v-2.766h-1.185c-9.943,0-19.887-.016-29.83.021a2.2,2.2,0,0,1-2.336-1.471c-.506-1.189-1.163-2.313-1.709-3.487a.938.938,0,0,0-1-.606c-5.447.016-10.894,0-16.342.034a1.279,1.279,0,0,0-.9.547c-.451.732-.783,1.537-1.178,2.3-1.513,2.947-.889,2.651-4.344,2.657C1003.031,2504.31,1000.558,2504.307,997.983,2504.307Zm5.581,8.348v52.317a13.088,13.088,0,0,0,1.359-.925,4.374,4.374,0,0,0,1.368-3.5q-.016-21.429-.007-42.859c0-.231,0-.461,0-.692.022-1.129.5-1.6,1.649-1.626.231-.006.461,0,.692,0,5.992,0,11.985,0,17.977-.016.314,0,.8-.146.907-.367a21.18,21.18,0,0,0,.8-2.335Z"
    transform="translate(-995.215 -2496)" fill="currentColor" />
</svg>