<svg xmlns="http://www.w3.org/2000/svg" viewBox="0 0 56.151 56.151">
  <g id="Group_186" data-name="Group 186" transform="translate(-138.192 -1845.473)">
    <path id="Path_50" data-name="Path 50"
      d="M1912.595,1804.78c.129-.777-.735-1.167-1.469-1.188-.886-.044-1.535.129-1.643.691-.129.778,1.923,1.1,3.329,1.556,2.052.67,5.1,1.361,4.407,4.991-.6,3.307-3.37,4.711-7.844,4.711-5.379,0-7.756-2.787-7.238-5.51h5.38c-.172,1.015.735,1.275,1.6,1.339,1.015.086,1.642-.086,1.728-.627.13-.691-.129-.885-1.794-1.426-3.586-1.145-5.92-2.442-5.379-5.445.713-3.825,5.013-4.278,8.059-4.278,2.657,0,6.915,1.361,6.2,5.185Z"
      transform="translate(-1756.326 63.402)" fill="#fff" />
    <path id="Path_52" data-name="Path 52"
      d="M1942.8,1796.786c-.036-.072-.036-.145-.109-.218-.036-.036-.072-.036-.109-.072a1.373,1.373,0,0,0-.545-.328c-.109-.073-.254-.109-.364-.182a.316.316,0,0,0-.219-.108,4.878,4.878,0,0,1-.691-.182c-.109-.036-.218-.036-.327-.073-.254-.036-.509-.036-.763-.072a.5.5,0,0,0-.364.181c-.146.146-.292.364-.437.51a1.712,1.712,0,0,0-.182.364,1.581,1.581,0,0,0-.145.364.378.378,0,0,0-.145.29c0,.037-.036.073-.073.109a.886.886,0,0,0-.217.292,1.729,1.729,0,0,1-.255.435c-.036.073-.036.109-.072.182a5.36,5.36,0,0,0-.364.618c0,.036,0,.036-.037.073-.036.109-.109.181-.145.29a.8.8,0,0,1-.181.4,1.43,1.43,0,0,0-.109.291,1.921,1.921,0,0,0-.254.473c-.109.145-.109.364-.256.509a1.107,1.107,0,0,1-.181.364,1.314,1.314,0,0,1-.182.4,1.506,1.506,0,0,1-.254.473v.072a1.351,1.351,0,0,1-.181.4c-.146.364-.328.691-.473,1.054a.3.3,0,0,0-.109.181,4.234,4.234,0,0,1-.254.582c-.037.073-.073.182-.109.254a1.378,1.378,0,0,0-.218.473,2.907,2.907,0,0,1-.292.582,1.164,1.164,0,0,0-.109.327l-.109.437a.65.65,0,0,0-.181.254c-.182.364-.4.763-.546,1.127a.585.585,0,0,1-.145.255,1.856,1.856,0,0,1-.181.473c-.109.29-.218.545-.328.836a1.337,1.337,0,0,0-.145.545.457.457,0,0,1-.474-.109,1.123,1.123,0,0,0-.29-.072c-.182,0-.364-.073-.509-.073a1.486,1.486,0,0,0-.4,0,.526.526,0,0,0-.254-.072,3.963,3.963,0,0,1-.654-.037c-.292,0-.582-.036-.873-.036-.218,0-.437-.036-.654-.036l-.037-.037a.388.388,0,0,1-.4-.036c-.072,0-.072.073-.109.073a1.812,1.812,0,0,0-.618-.037h-.945a2.388,2.388,0,0,1-.727,0,.281.281,0,0,0-.146.073c-.036-.036-.072-.073-.108-.073-.437.073-.836.037-1.237.073a6.842,6.842,0,0,1-.872,0,.276.276,0,0,1,.036-.182.5.5,0,0,1,.073-.217c0-.037.036-.073.036-.146a.529.529,0,0,1,.072-.218.641.641,0,0,0,.146-.364,5.918,5.918,0,0,1,.181-.763,3.966,3.966,0,0,0,.328-1.128c.037-.036.037-.072.073-.145.036-.109.109-.254.145-.4a3.72,3.72,0,0,1,.254-.546,2.784,2.784,0,0,0,.292-.763,2.839,2.839,0,0,1,.326-.764.131.131,0,0,0,.037-.109,2.088,2.088,0,0,0,.217-.618c.037-.145.109-.254.146-.4a6.591,6.591,0,0,1,.254-.8l.218-.655c.036-.109.072-.218.109-.326a2.431,2.431,0,0,1,.217-.728,1.3,1.3,0,0,0,.109-.654.781.781,0,0,0-.364-.546,3.326,3.326,0,0,1-.473-.29,3.977,3.977,0,0,1-.4-.218,1.288,1.288,0,0,0-.473-.182,3.025,3.025,0,0,1-.618-.218,5.356,5.356,0,0,0-.51-.217.764.764,0,0,0-.69.036c-.037,0-.073.036-.109.073a1.515,1.515,0,0,1-.182.326.551.551,0,0,0-.109.255,4.394,4.394,0,0,1-.254.618,3.109,3.109,0,0,0-.328.8,1.026,1.026,0,0,1-.145.437c-.036.037-.036.073-.073.109-.145.4-.326.8-.473,1.2-.072.145-.145.328-.217.473a5.86,5.86,0,0,0-.256.727c-.145.364-.326.764-.473,1.128a6.971,6.971,0,0,1-.326.763v.182a.078.078,0,0,0-.073.073,4.582,4.582,0,0,0-.218.654.583.583,0,0,1-.109.327.319.319,0,0,0-.109.218c-.036.072-.036.109-.072.181a2.367,2.367,0,0,0-.109.546,1.164,1.164,0,0,1-.109.327.408.408,0,0,0-.109.29.581.581,0,0,0-.145.254c.036.037.072,0,.036.037a.309.309,0,0,0-.109.181.036.036,0,0,1,.037.037,1.805,1.805,0,0,0-.327.581c-.037.146-.109.292-.146.437a1.613,1.613,0,0,1-.218.437.133.133,0,0,1-.145.145,4.381,4.381,0,0,0-.691.073c-.108.036-.217,0-.364.036a.544.544,0,0,1-.122-.01,5.41,5.41,0,0,1-3.027,5.061c.074.013.154.022.241.039a.279.279,0,0,1,.145.036.517.517,0,0,0,.254.073c.109,0,.218-.036.291.036.036.037,0,.109.072.145.036,0,.073.037.145.037a.133.133,0,0,1,.109-.037,2.594,2.594,0,0,0,.51-.036.845.845,0,0,1,.4.073.16.16,0,0,1-.036.181,3.144,3.144,0,0,0-.218.619,3.428,3.428,0,0,1-.218.545.309.309,0,0,0,0,.254.627.627,0,0,0,.036.255,1.923,1.923,0,0,1-.326,1.09,2.107,2.107,0,0,0-.219.509v.109a3.071,3.071,0,0,1-.037.582v.145a1.965,1.965,0,0,1-.036.8,3.839,3.839,0,0,0-.109.691.333.333,0,0,0,.036-.182c0-.072.037-.109.073-.181a.217.217,0,0,1,0,.254c0,.109-.036.218-.036.364h.072a.132.132,0,0,1,.037-.109c.109,0,.036-.109.109-.145.036.181-.109.4-.073.582.036.036.073-.037.145,0,0,.145-.036.254-.036.364,0,.145-.073.254-.036.364.072.036.072-.037.109,0,0,.072-.073.181-.037.254.073,0,.037-.073.109-.073l.037.037c.109-.109.109-.292.217-.4.073.037.037.109,0,.145a1.085,1.085,0,0,0-.072.365,1.3,1.3,0,0,0,.145-.328.567.567,0,0,1,.218-.291c-.036.328-.218.619-.254.909.036,0,.072.073.109.073.036-.145.218-.145.29-.218a.272.272,0,0,1,0,.328.74.74,0,0,1-.145.217.523.523,0,0,0-.182.546c0,.036.073.073.073.109a.185.185,0,0,1-.073.145c-.036.073-.072.109-.072.182-.037,0,0,0,0,.036a.136.136,0,0,0,.109-.036c.109-.146.218-.291.29-.4.182-.145.364-.109.546-.145a.932.932,0,0,1,.29-.437c0-.036.037-.072.037-.109a3.686,3.686,0,0,0,.326-.472,1.487,1.487,0,0,0,.182-.327,3.535,3.535,0,0,0,.29-.655c.037,0,.037-.036.073-.072.036-.073.109-.182.145-.255.073-.217.219-.364.291-.545.037-.073.073-.109.073-.182a.145.145,0,0,1,.073-.145l.109-.218a2.242,2.242,0,0,1,.109-.29c.072-.182.145-.328.218-.473a.39.39,0,0,1,.072-.219,6.013,6.013,0,0,0,.327-.691l.328-.763c.108-.218.181-.437.29-.655a2.194,2.194,0,0,1,.182-.437,3.8,3.8,0,0,1,.145-.364c.072-.109.109-.29.254-.327,0-.109.073-.182.109-.291,0-.073,0-.109-.036-.145.109-.109.072-.292.181-.4.145-.036.292-.036.4-.072a.782.782,0,0,1,.29-.037,1.04,1.04,0,0,0,.473-.036c.073,0,.182-.036.254-.036a1.779,1.779,0,0,0,.437,0c.181,0,.327-.073.509,0h.036a1.347,1.347,0,0,0,.364-.109.814.814,0,0,0,.292.036c.182-.036.364-.036.546-.072.181,0,.218.036.29.181a.7.7,0,0,0,.473,0c.073-.072.073-.145.145-.181a.468.468,0,0,0,.218.036c-.072.073-.181.073-.181.145,0,.036.036.036.072.036a.13.13,0,0,1,.073-.036.17.17,0,0,0,.218.036c0-.036-.037-.036-.073-.072a.643.643,0,0,0,.182-.145,1.582,1.582,0,0,1,.181.036c.037.036-.036.073,0,.109.109,0,.219.072.364-.036-.036-.037-.072-.037-.109-.073.073-.036.182,0,.254-.073.037,0,.037.037.073.037a.625.625,0,0,0,.364,0c.109,0,.182-.037.291-.037h.291c.145.037.291,0,.4.073a1,1,0,0,1,.654,0c.473,0,.945-.036,1.491-.073a.592.592,0,0,0,.364,0c0,.037.036.073,0,.073-.073.181-.109.328-.182.509a1.579,1.579,0,0,1-.181.437,1.2,1.2,0,0,1-.109.328,4.714,4.714,0,0,0-.254.654c-.109.364-.254.727-.364,1.092a1.171,1.171,0,0,0-.146.509c-.036.072-.109.109-.109.181a1.753,1.753,0,0,1-.145.4c-.109.29-.218.582-.327.909a3.278,3.278,0,0,1-.145.471c-.072.218-.181.473-.254.728s-.181.473-.254.69a.527.527,0,0,0-.073.218,4,4,0,0,1-.181.619.516.516,0,0,1-.073.217,3.1,3.1,0,0,1-.181.619,4.543,4.543,0,0,1-.146.581c-.036.218-.109.474-.145.728a8.354,8.354,0,0,0-.218,1.381.539.539,0,0,0,.073.328h-.073v.036a1.792,1.792,0,0,0,.036.437c.037.036.073.036.109.073,0,.036,0,.036.037.036,0,.036,0,.036-.073.036-.036.073-.109.037-.145.073,0,.109.072.145.072.218.146,0,.037-.036.109-.036.037,0,.109.072.182.108-.073.037-.109.037-.145-.036-.109-.109-.037.073.036.145.036.073,0,.109,0,.182a.068.068,0,0,0,0,.109.035.035,0,0,0-.036.036.2.2,0,0,0,.109.182c.072,0,.109-.037.181-.073a.134.134,0,0,1,.037-.109l.036.037c.145,0,.181.108.218.181s0,.145,0,.218c.072.145,0,.254-.037.4v.109c0,.073-.036.109-.036.145.036.109.109.146.145.255.073-.073.073-.182.182-.255.073,0,.145-.072.254-.072.036-.037,0-.109.073-.109a.322.322,0,0,1-.037.181,1.482,1.482,0,0,1-.145.364c-.036.037-.036.073-.036.146v.036c.072,0,.072-.073.145-.036.109.109.036.254.036.364a.328.328,0,0,1,.109.254,1.3,1.3,0,0,1-.072.364.089.089,0,0,0,.036.145.358.358,0,0,0,.145-.181c0-.109.073-.182.145-.291.037,0,.037,0,.073.036a1.935,1.935,0,0,0,.218-.362l.328-.546a5.994,5.994,0,0,0,.364-.655,5.672,5.672,0,0,0,.436-.8.688.688,0,0,0,.109-.292,1.4,1.4,0,0,1,.109-.364,7.658,7.658,0,0,0,.292-.836v-.036a.584.584,0,0,1,.181-.328.271.271,0,0,0,.073-.145,1.021,1.021,0,0,0,.036-.328.911.911,0,0,1,.218-.509.846.846,0,0,0,.254-.255.243.243,0,0,0,.145-.217.272.272,0,0,1,.037-.146c.109-.218.254-.473.364-.727.036-.036.036-.073.072-.073a1.05,1.05,0,0,0,.145-.29q.11-.273.218-.545a4.2,4.2,0,0,1,.182-.4,4,4,0,0,0,.182-.618.519.519,0,0,1,.072-.218,7.006,7.006,0,0,0,.473-.909,2.4,2.4,0,0,0,.109-.29.274.274,0,0,1,.073-.182,3.391,3.391,0,0,0,.181-.29,1.606,1.606,0,0,0,.182-.546.478.478,0,0,1,.109-.29c.072-.146.145-.364.217-.546.109-.181.146-.437.255-.618a4.924,4.924,0,0,0,.254-.655.126.126,0,0,1,.036-.072,4.315,4.315,0,0,1,.182-.4c.036-.109.072-.181.109-.29a3.478,3.478,0,0,0,.217-.655c0-.036.037-.072.037-.109.109-.218.181-.435.29-.654a.747.747,0,0,0,.145-.218,1.869,1.869,0,0,0,.109-.437c.037-.036.037-.072.073-.109a2.941,2.941,0,0,0,.218-.509c.036-.073.073-.145.109-.218.036-.145.145-.29.181-.436a1.235,1.235,0,0,1,.146-.437c.072-.073.072-.145.109-.254a1.022,1.022,0,0,1,.145-.437.741.741,0,0,0,.145-.291,4.292,4.292,0,0,1,.182-.4,1.437,1.437,0,0,0,.181-.509,1.453,1.453,0,0,0,.254-.655c.036-.072.036-.145.073-.219a.863.863,0,0,0,.254-.435c0-.036.036-.073.073-.109.036-.073.072-.109.109-.182a2.12,2.12,0,0,1,.217-.509c0-.036.037-.109.037-.145a1.6,1.6,0,0,0,.217-.582c.037-.073.109-.109.109-.182.037-.145.073-.254.109-.364.037-.072.109-.145.146-.218a2.832,2.832,0,0,1,.181-.509.962.962,0,0,0,.182-.327.366.366,0,0,1,.145-.254.611.611,0,0,1,.109-.364c.072-.073.109-.145.072-.218a2.688,2.688,0,0,0,.218-.473.87.87,0,0,1,.255-.436.222.222,0,0,1,.036-.146c.072-.217.145-.436.218-.618.072-.145.145-.29.217-.437a.854.854,0,0,0,.109-.326.036.036,0,0,0,.037-.037,2.757,2.757,0,0,0,.217-.473,4.381,4.381,0,0,1,.292-.727,3.663,3.663,0,0,1,.327-.654c.109-.255.219-.473.328-.691.036-.036.036-.073.072-.109.073-.218.109-.437.182-.655.072-.181.145-.4.217-.582a1.79,1.79,0,0,0,.182-.473,1.678,1.678,0,0,1,.254-.582,1.734,1.734,0,0,0,.145-.4.682.682,0,0,1,.073-.29,1.487,1.487,0,0,0,.145-.873m-17.38,18.4h.036c-.036.036-.036.036-.036,0m1.709,11.126a.036.036,0,0,1-.037-.036c.037,0,.037,0,.037.036m-.037,1.2a.126.126,0,0,1-.072.036v-.036a.05.05,0,0,1,.072,0c.037-.036,0-.072.073-.109,0,.073-.036.073-.073.109m.037-.654c.036,0,.036,0,.072.036-.036,0-.072,0-.072-.036m.072-1.418c0-.036-.036-.036,0-.073.037,0,0,.037,0,.073m.254-1.564a.1.1,0,0,1-.108-.108.1.1,0,0,1,.108.108m-.108,2.837a.036.036,0,0,1-.037.036c0-.036,0-.036.037-.036m-.037-.473c0,.036-.036.036-.072,0,0-.037.036-.037.072,0m.037,1.308h-.037c.037-.036.037,0,.037,0,.036.037.072.037.072.073-.036,0-.036-.036-.072-.073m-.037-.29c-.036-.036-.072-.109,0-.109s.073.073.109.109c-.036.036-.072,0-.109,0m.109-.509a.035.035,0,0,1,.036-.036c0,.036,0,.072-.036.036m.145.545h-.036v-.036h.036Zm0-.29h-.072c0-.073-.037-.109-.037-.145.109,0,.109.072.109.145.037,0,.037,0,.037.036Zm0-1.019c-.036-.036,0-.036,0-.036.037,0,.037,0,.037.036Zm.364-.218c-.036-.072,0-.036.037-.072,0,.036,0,.072-.037.072"
      transform="translate(-1755.252 63.032)" fill="#fff" />
    <circle id="Ellipse_31" data-name="Ellipse 31" cx="27.667" cy="27.667" r="27.667"
      transform="translate(138.601 1845.882)" fill="none" stroke="#fff" stroke-miterlimit="10" stroke-width="0.818" />
  </g>
</svg>