<svg xmlns="http://www.w3.org/2000/svg" xmlns:xlink="http://www.w3.org/1999/xlink" width="18.14" height="18.14" viewBox="0 0 18.14 18.14">
  <defs>
    <linearGradient id="linear-gradient" x1="0.155" y1="0.845" x2="0.845" y2="0.155" gradientUnits="objectBoundingBox">
      <stop offset="0.112" stop-color="#ffadfa"/>
      <stop offset="0.5" stop-color="#b5adfa"/>
      <stop offset="0.888" stop-color="#61adfa"/>
    </linearGradient>
  </defs>
  <path id="Path_53" data-name="Path 53" d="M2099.851,1798.5a1.875,1.875,0,0,0,.049-3.75,1.4,1.4,0,0,0-.178.007c-.031,0-.064.005-.1.011a1.8,1.8,0,0,1-.421.107,1.771,1.771,0,0,1,.421-.107c.032-.012.061-.024.092-.038.053-.024.106-.05.157-.079a1.876,1.876,0,0,0-1.833-3.273c-.053.031-.106.063-.155.1-.025.016-.048.034-.071.052a1.884,1.884,0,0,1-.309.3,1.633,1.633,0,0,1,.309-.3c.017-.023.036-.047.052-.07.036-.049.071-.1.1-.153a1.875,1.875,0,0,0-3.223-1.918,1.738,1.738,0,0,0-.1.2.487.487,0,0,0-.021.05,1.824,1.824,0,0,1-.117.413,1.782,1.782,0,0,1,.117-.413l.008-.054a1.775,1.775,0,0,0,.015-.22,1.875,1.875,0,0,0-3.75-.048,1.944,1.944,0,0,0,.018.275l0,.01a1.8,1.8,0,0,1,.1.41,1.771,1.771,0,0,1-.106-.409l0-.011a1.761,1.761,0,0,0-.116-.249,1.875,1.875,0,1,0-3.273,1.832,1.687,1.687,0,0,0,.151.227c.022.019.045.037.066.058a1.779,1.779,0,0,1,.235.25,1.585,1.585,0,0,1-.246-.238c-.02-.023-.038-.047-.056-.07a1.813,1.813,0,0,0-.223-.155,1.876,1.876,0,0,0-1.918,3.224,1.915,1.915,0,0,0,.247.122c.047.008.095.017.141.028l-.005.022c-.047-.014-.091-.032-.135-.05a1.718,1.718,0,0,0-.274-.024,1.875,1.875,0,0,0-.049,3.75,1.746,1.746,0,0,0,.275-.017c.056-.021.111-.039.168-.055a1.687,1.687,0,0,1,.253-.052,1.917,1.917,0,0,1-.247.077c-.058.013-.116.023-.175.031a1.875,1.875,0,1,0,1.584,3.388,1.8,1.8,0,0,0,.226-.15c.038-.046.077-.089.12-.132a1.729,1.729,0,0,1,.189-.169,1.379,1.379,0,0,1-.172.184,1.238,1.238,0,0,1-.136.117,2.036,2.036,0,0,0-.155.223,1.875,1.875,0,0,0,3.223,1.917,1.758,1.758,0,0,0,.124-.246c.008-.045.016-.09.026-.133a1.7,1.7,0,0,1,.089-.279,1.766,1.766,0,0,1-.069.286c-.013.042-.029.085-.047.127a1.731,1.731,0,0,0-.024.273,1.875,1.875,0,1,0,3.75.049,1.933,1.933,0,0,0-.018-.275c-.009-.022-.016-.044-.024-.065a1.838,1.838,0,0,1-.083-.356,1.761,1.761,0,0,1,.1.352.645.645,0,0,1,.011.07,1.875,1.875,0,1,0,3.388-1.584,1.8,1.8,0,0,0-.149-.226,1.707,1.707,0,0,0,.223.155,1.875,1.875,0,0,0,1.917-3.224,1.579,1.579,0,0,0-.187-.1.584.584,0,0,0-.058-.026,1.791,1.791,0,0,1-.413-.117,1.771,1.771,0,0,1,.413.117l.063.009A1.851,1.851,0,0,0,2099.851,1798.5Zm-3.8-3.66a.907.907,0,0,1-.315.527q-1.677,1.67-3.349,3.348a.683.683,0,0,1-.564.218.625.625,0,0,1-.375-.16.6.6,0,0,1-.047-.044q-.888-.886-1.773-1.773a.664.664,0,0,1,.881-.992c.058.051.113.108.167.163q.578.576,1.154,1.155a.385.385,0,0,1,.044.057l.028.009a.335.335,0,0,1,.041-.066q1.472-1.474,2.944-2.948a.683.683,0,0,1,.547-.218.654.654,0,0,1,.606.552.314.314,0,0,0,.011.044Zm1.327,6.518a1.618,1.618,0,0,1,.3.306A1.876,1.876,0,0,1,2097.382,1801.358Z" transform="translate(-2083.61 -1787.462)" fill="url(#linear-gradient)"/>
</svg>
